<mxfile host="app.diagrams.net" modified="2023-11-16T08:33:31.572Z" agent="Mozilla/5.0 (Windows NT 10.0; Win64; x64) AppleWebKit/537.36 (KHTML, like Gecko) Chrome/116.0.5845.837 YaBrowser/23.9.4.837 Yowser/2.5 Safari/537.36" etag="M_YVUuBbi15r0lNzo2ek" version="22.1.2" type="device">
  <diagram name="Страница — 1" id="fiVxjqWDsKJx4rfQ__iS">
    <mxGraphModel dx="2736" dy="1116" grid="1" gridSize="10" guides="1" tooltips="1" connect="1" arrows="1" fold="1" page="1" pageScale="1" pageWidth="827" pageHeight="1169" math="0" shadow="0">
      <root>
        <mxCell id="0" />
        <mxCell id="1" parent="0" />
        <mxCell id="8qRsYu6iVw872slsagQy-5" value="" style="group" vertex="1" connectable="0" parent="1">
          <mxGeometry x="-790" y="50" width="410" height="550.59" as="geometry" />
        </mxCell>
        <mxCell id="8qRsYu6iVw872slsagQy-6" value="Авторизация" style="strokeWidth=1;shadow=0;dashed=0;align=center;html=1;shape=mxgraph.mockup.containers.window;align=left;verticalAlign=top;spacingLeft=8;strokeColor2=#008cff;strokeColor3=#c4c4c4;fontColor=#666666;mainText=;fontSize=17;labelBackgroundColor=none;whiteSpace=wrap;" vertex="1" parent="8qRsYu6iVw872slsagQy-5">
          <mxGeometry width="410" height="550" as="geometry" />
        </mxCell>
        <mxCell id="8qRsYu6iVw872slsagQy-178" value="" style="group" vertex="1" connectable="0" parent="8qRsYu6iVw872slsagQy-5">
          <mxGeometry x="50" y="100.00176470588235" width="320" height="260" as="geometry" />
        </mxCell>
        <mxCell id="8qRsYu6iVw872slsagQy-7" value="" style="group" vertex="1" connectable="0" parent="8qRsYu6iVw872slsagQy-178">
          <mxGeometry width="320" height="260" as="geometry" />
        </mxCell>
        <mxCell id="8qRsYu6iVw872slsagQy-8" value="Логин" style="fillColor=none;strokeColor=none;align=left;fontSize=14;" vertex="1" parent="8qRsYu6iVw872slsagQy-7">
          <mxGeometry width="260" height="40" relative="1" as="geometry">
            <mxPoint as="offset" />
          </mxGeometry>
        </mxCell>
        <mxCell id="8qRsYu6iVw872slsagQy-9" value="" style="html=1;shadow=0;dashed=0;shape=mxgraph.bootstrap.rrect;rSize=5;fillColor=none;strokeColor=#999999;align=left;spacing=15;fontSize=14;fontColor=#6C767D;" vertex="1" parent="8qRsYu6iVw872slsagQy-7">
          <mxGeometry width="320" height="30" relative="1" as="geometry">
            <mxPoint y="40" as="offset" />
          </mxGeometry>
        </mxCell>
        <mxCell id="8qRsYu6iVw872slsagQy-11" value="Пароль" style="fillColor=none;strokeColor=none;align=left;fontSize=14;" vertex="1" parent="8qRsYu6iVw872slsagQy-7">
          <mxGeometry width="260" height="40" relative="1" as="geometry">
            <mxPoint y="100" as="offset" />
          </mxGeometry>
        </mxCell>
        <mxCell id="8qRsYu6iVw872slsagQy-12" value="" style="html=1;shadow=0;dashed=0;shape=mxgraph.bootstrap.rrect;rSize=5;fillColor=none;strokeColor=#999999;align=left;spacing=15;fontSize=14;fontColor=#6C767D;" vertex="1" parent="8qRsYu6iVw872slsagQy-7">
          <mxGeometry width="320" height="30" relative="1" as="geometry">
            <mxPoint y="140" as="offset" />
          </mxGeometry>
        </mxCell>
        <mxCell id="8qRsYu6iVw872slsagQy-13" value="Регистрация" style="html=1;shadow=0;dashed=0;shape=mxgraph.bootstrap.rrect;rSize=5;fillColor=#0085FC;strokeColor=none;align=center;fontSize=14;fontColor=#FFFFFF;" vertex="1" parent="8qRsYu6iVw872slsagQy-178">
          <mxGeometry x="172" y="220" width="110" height="40" as="geometry" />
        </mxCell>
        <mxCell id="8qRsYu6iVw872slsagQy-14" value="Войти" style="html=1;shadow=0;dashed=0;shape=mxgraph.bootstrap.rrect;rSize=5;fillColor=#0085FC;strokeColor=none;align=center;fontSize=14;fontColor=#FFFFFF;" vertex="1" parent="8qRsYu6iVw872slsagQy-178">
          <mxGeometry width="70" height="40" relative="1" as="geometry">
            <mxPoint x="40" y="220" as="offset" />
          </mxGeometry>
        </mxCell>
        <mxCell id="8qRsYu6iVw872slsagQy-25" value="" style="group" vertex="1" connectable="0" parent="1">
          <mxGeometry x="-330" y="50" width="410" height="550.59" as="geometry" />
        </mxCell>
        <mxCell id="8qRsYu6iVw872slsagQy-26" value="Регистрация" style="strokeWidth=1;shadow=0;dashed=0;align=center;html=1;shape=mxgraph.mockup.containers.window;align=left;verticalAlign=top;spacingLeft=8;strokeColor2=#008cff;strokeColor3=#c4c4c4;fontColor=#666666;mainText=;fontSize=17;labelBackgroundColor=none;whiteSpace=wrap;" vertex="1" parent="8qRsYu6iVw872slsagQy-25">
          <mxGeometry width="410" height="550.59" as="geometry" />
        </mxCell>
        <mxCell id="8qRsYu6iVw872slsagQy-181" value="" style="group" vertex="1" connectable="0" parent="8qRsYu6iVw872slsagQy-25">
          <mxGeometry x="70" y="70.00176470588235" width="270" height="410" as="geometry" />
        </mxCell>
        <mxCell id="8qRsYu6iVw872slsagQy-31" value="Пароль" style="fillColor=none;strokeColor=none;align=left;fontSize=14;" vertex="1" parent="8qRsYu6iVw872slsagQy-181">
          <mxGeometry y="90" width="260" height="40" as="geometry" />
        </mxCell>
        <mxCell id="8qRsYu6iVw872slsagQy-32" value="" style="html=1;shadow=0;dashed=0;shape=mxgraph.bootstrap.rrect;rSize=5;fillColor=none;strokeColor=#999999;align=left;spacing=15;fontSize=14;fontColor=#6C767D;" vertex="1" parent="8qRsYu6iVw872slsagQy-181">
          <mxGeometry y="130" width="270" height="30" as="geometry" />
        </mxCell>
        <mxCell id="8qRsYu6iVw872slsagQy-180" value="" style="group" vertex="1" connectable="0" parent="8qRsYu6iVw872slsagQy-181">
          <mxGeometry width="270" height="410" as="geometry" />
        </mxCell>
        <mxCell id="8qRsYu6iVw872slsagQy-33" value="Регистрация" style="html=1;shadow=0;dashed=0;shape=mxgraph.bootstrap.rrect;rSize=5;fillColor=#0085FC;strokeColor=none;align=center;fontSize=14;fontColor=#FFFFFF;" vertex="1" parent="8qRsYu6iVw872slsagQy-180">
          <mxGeometry y="370" width="110" height="40" as="geometry" />
        </mxCell>
        <mxCell id="8qRsYu6iVw872slsagQy-179" value="" style="group" vertex="1" connectable="0" parent="8qRsYu6iVw872slsagQy-180">
          <mxGeometry width="270" height="340" as="geometry" />
        </mxCell>
        <mxCell id="8qRsYu6iVw872slsagQy-27" value="" style="group" vertex="1" connectable="0" parent="8qRsYu6iVw872slsagQy-179">
          <mxGeometry width="270" height="320" as="geometry" />
        </mxCell>
        <mxCell id="8qRsYu6iVw872slsagQy-28" value="Номер телефона(Логин)" style="fillColor=none;strokeColor=none;align=left;fontSize=14;" vertex="1" parent="8qRsYu6iVw872slsagQy-27">
          <mxGeometry width="260" height="40" as="geometry" />
        </mxCell>
        <mxCell id="8qRsYu6iVw872slsagQy-29" value="" style="html=1;shadow=0;dashed=0;shape=mxgraph.bootstrap.rrect;rSize=5;fillColor=none;strokeColor=#999999;align=left;spacing=15;fontSize=14;fontColor=#6C767D;" vertex="1" parent="8qRsYu6iVw872slsagQy-27">
          <mxGeometry y="40" width="270" height="30" as="geometry" />
        </mxCell>
        <mxCell id="8qRsYu6iVw872slsagQy-34" value="Подтверждение пароля" style="fillColor=none;strokeColor=none;align=left;fontSize=14;" vertex="1" parent="8qRsYu6iVw872slsagQy-27">
          <mxGeometry y="180" width="260" height="40" as="geometry" />
        </mxCell>
        <mxCell id="8qRsYu6iVw872slsagQy-35" value="" style="html=1;shadow=0;dashed=0;shape=mxgraph.bootstrap.rrect;rSize=5;fillColor=none;strokeColor=#999999;align=left;spacing=15;fontSize=14;fontColor=#6C767D;" vertex="1" parent="8qRsYu6iVw872slsagQy-27">
          <mxGeometry y="220" width="270" height="30" as="geometry" />
        </mxCell>
        <mxCell id="8qRsYu6iVw872slsagQy-80" value="Email" style="fillColor=none;strokeColor=none;align=left;fontSize=14;" vertex="1" parent="8qRsYu6iVw872slsagQy-27">
          <mxGeometry y="260" width="260" height="40" as="geometry" />
        </mxCell>
        <mxCell id="8qRsYu6iVw872slsagQy-81" value="" style="html=1;shadow=0;dashed=0;shape=mxgraph.bootstrap.rrect;rSize=5;fillColor=none;strokeColor=#999999;align=left;spacing=15;fontSize=14;fontColor=#6C767D;" vertex="1" parent="8qRsYu6iVw872slsagQy-179">
          <mxGeometry y="310" width="270" height="30" as="geometry" />
        </mxCell>
        <mxCell id="8qRsYu6iVw872slsagQy-92" value="" style="group" vertex="1" connectable="0" parent="1">
          <mxGeometry x="-330" y="640" width="410" height="550.59" as="geometry" />
        </mxCell>
        <mxCell id="8qRsYu6iVw872slsagQy-93" value="Подключение робота" style="strokeWidth=1;shadow=0;dashed=0;align=center;html=1;shape=mxgraph.mockup.containers.window;align=left;verticalAlign=top;spacingLeft=8;strokeColor2=#008cff;strokeColor3=#c4c4c4;fontColor=#666666;mainText=;fontSize=17;labelBackgroundColor=none;whiteSpace=wrap;" vertex="1" parent="8qRsYu6iVw872slsagQy-92">
          <mxGeometry width="410" height="550" as="geometry" />
        </mxCell>
        <mxCell id="8qRsYu6iVw872slsagQy-170" value="Робот 1" style="html=1;shadow=0;dashed=0;shape=mxgraph.bootstrap.rrect;rSize=5;strokeColor=#CED4DA;html=1;whiteSpace=wrap;fillColor=#FFFFFF;fontColor=#7D868C;align=left;spacingLeft=80;spacing=15;fontSize=14;" vertex="1" parent="8qRsYu6iVw872slsagQy-92">
          <mxGeometry x="18" y="60" width="380" height="40" as="geometry" />
        </mxCell>
        <mxCell id="8qRsYu6iVw872slsagQy-171" value="" style="shape=triangle;direction=south;fillColor=#343A40;strokeColor=none;perimeter=none;" vertex="1" parent="8qRsYu6iVw872slsagQy-170">
          <mxGeometry x="1" y="0.5" width="7" height="3" relative="1" as="geometry">
            <mxPoint x="-17" y="1" as="offset" />
          </mxGeometry>
        </mxCell>
        <mxCell id="8qRsYu6iVw872slsagQy-172" value="" style="shape=triangle;direction=north;fillColor=#343A40;strokeColor=none;perimeter=none;" vertex="1" parent="8qRsYu6iVw872slsagQy-170">
          <mxGeometry x="1" y="0.5" width="7" height="3" relative="1" as="geometry">
            <mxPoint x="-17" y="-4" as="offset" />
          </mxGeometry>
        </mxCell>
        <mxCell id="8qRsYu6iVw872slsagQy-173" value="Доступные в сети роботы" style="html=1;shadow=0;dashed=0;shape=mxgraph.bootstrap.leftButton;strokeColor=#CED4DA;gradientColor=inherit;fontColor=inherit;fillColor=#E9ECEF;rSize=5;perimeter=none;whiteSpace=wrap;resizeHeight=1;fontSize=14;align=left;spacing=15;" vertex="1" parent="8qRsYu6iVw872slsagQy-170">
          <mxGeometry width="90" height="40" relative="1" as="geometry" />
        </mxCell>
        <mxCell id="8qRsYu6iVw872slsagQy-174" value="Пароль" style="fillColor=none;strokeColor=none;align=left;fontSize=14;" vertex="1" parent="8qRsYu6iVw872slsagQy-92">
          <mxGeometry x="18" y="130.00176470588235" width="260" height="40" as="geometry" />
        </mxCell>
        <mxCell id="8qRsYu6iVw872slsagQy-175" value="" style="html=1;shadow=0;dashed=0;shape=mxgraph.bootstrap.rrect;rSize=5;fillColor=none;strokeColor=#999999;align=left;spacing=15;fontSize=14;fontColor=#6C767D;" vertex="1" parent="8qRsYu6iVw872slsagQy-92">
          <mxGeometry x="18" y="170" width="382" height="30" as="geometry" />
        </mxCell>
        <mxCell id="8qRsYu6iVw872slsagQy-176" value="Подключить" style="html=1;shadow=0;dashed=0;shape=mxgraph.bootstrap.rrect;rSize=5;fillColor=#0085FC;strokeColor=none;align=center;fontSize=14;fontColor=#FFFFFF;" vertex="1" parent="8qRsYu6iVw872slsagQy-92">
          <mxGeometry x="130" y="240" width="132" height="40" as="geometry" />
        </mxCell>
        <mxCell id="8qRsYu6iVw872slsagQy-191" value="" style="group" vertex="1" connectable="0" parent="1">
          <mxGeometry x="-790" y="1840" width="410" height="550.59" as="geometry" />
        </mxCell>
        <mxCell id="8qRsYu6iVw872slsagQy-192" value="Планировка уборки" style="strokeWidth=1;shadow=0;dashed=0;align=center;html=1;shape=mxgraph.mockup.containers.window;align=left;verticalAlign=top;spacingLeft=8;strokeColor2=#008cff;strokeColor3=#c4c4c4;fontColor=#666666;mainText=;fontSize=17;labelBackgroundColor=none;whiteSpace=wrap;" vertex="1" parent="8qRsYu6iVw872slsagQy-191">
          <mxGeometry width="410" height="550" as="geometry" />
        </mxCell>
        <mxCell id="8qRsYu6iVw872slsagQy-193" value="&lt;span style=&quot;white-space: pre;&quot;&gt;&#x9;&lt;/span&gt;Робот 1" style="html=1;shadow=0;dashed=0;shape=mxgraph.bootstrap.rrect;rSize=5;strokeColor=#CED4DA;html=1;whiteSpace=wrap;fillColor=#FFFFFF;fontColor=#7D868C;align=left;spacingLeft=80;spacing=15;fontSize=14;" vertex="1" parent="8qRsYu6iVw872slsagQy-191">
          <mxGeometry x="18" y="60" width="380" height="40" as="geometry" />
        </mxCell>
        <mxCell id="8qRsYu6iVw872slsagQy-194" value="" style="shape=triangle;direction=south;fillColor=#343A40;strokeColor=none;perimeter=none;" vertex="1" parent="8qRsYu6iVw872slsagQy-193">
          <mxGeometry x="1" y="0.5" width="7" height="3" relative="1" as="geometry">
            <mxPoint x="-17" y="1" as="offset" />
          </mxGeometry>
        </mxCell>
        <mxCell id="8qRsYu6iVw872slsagQy-195" value="" style="shape=triangle;direction=north;fillColor=#343A40;strokeColor=none;perimeter=none;" vertex="1" parent="8qRsYu6iVw872slsagQy-193">
          <mxGeometry x="1" y="0.5" width="7" height="3" relative="1" as="geometry">
            <mxPoint x="-17" y="-4" as="offset" />
          </mxGeometry>
        </mxCell>
        <mxCell id="8qRsYu6iVw872slsagQy-196" value="Подключённые роботы" style="html=1;shadow=0;dashed=0;shape=mxgraph.bootstrap.leftButton;strokeColor=#CED4DA;gradientColor=inherit;fontColor=inherit;fillColor=#E9ECEF;rSize=5;perimeter=none;whiteSpace=wrap;resizeHeight=1;fontSize=14;align=left;spacing=15;" vertex="1" parent="8qRsYu6iVw872slsagQy-193">
          <mxGeometry width="120" height="40" relative="1" as="geometry" />
        </mxCell>
        <mxCell id="8qRsYu6iVw872slsagQy-237" value="Режим 1" style="html=1;shadow=0;dashed=0;shape=mxgraph.bootstrap.rrect;rSize=5;strokeColor=#CED4DA;html=1;whiteSpace=wrap;fillColor=#FFFFFF;fontColor=#7D868C;align=left;spacingLeft=80;spacing=15;fontSize=14;" vertex="1" parent="8qRsYu6iVw872slsagQy-191">
          <mxGeometry x="18" y="130" width="380" height="40" as="geometry" />
        </mxCell>
        <mxCell id="8qRsYu6iVw872slsagQy-238" value="" style="shape=triangle;direction=south;fillColor=#343A40;strokeColor=none;perimeter=none;" vertex="1" parent="8qRsYu6iVw872slsagQy-237">
          <mxGeometry x="1" y="0.5" width="7" height="3" relative="1" as="geometry">
            <mxPoint x="-17" y="1" as="offset" />
          </mxGeometry>
        </mxCell>
        <mxCell id="8qRsYu6iVw872slsagQy-239" value="" style="shape=triangle;direction=north;fillColor=#343A40;strokeColor=none;perimeter=none;" vertex="1" parent="8qRsYu6iVw872slsagQy-237">
          <mxGeometry x="1" y="0.5" width="7" height="3" relative="1" as="geometry">
            <mxPoint x="-17" y="-4" as="offset" />
          </mxGeometry>
        </mxCell>
        <mxCell id="8qRsYu6iVw872slsagQy-240" value="Режимы" style="html=1;shadow=0;dashed=0;shape=mxgraph.bootstrap.leftButton;strokeColor=#CED4DA;gradientColor=inherit;fontColor=inherit;fillColor=#E9ECEF;rSize=5;perimeter=none;whiteSpace=wrap;resizeHeight=1;fontSize=14;align=left;spacing=15;" vertex="1" parent="8qRsYu6iVw872slsagQy-237">
          <mxGeometry width="80" height="40" relative="1" as="geometry" />
        </mxCell>
        <mxCell id="8qRsYu6iVw872slsagQy-241" value="Кухня" style="html=1;shadow=0;dashed=0;shape=mxgraph.bootstrap.rrect;rSize=5;strokeColor=#CED4DA;html=1;whiteSpace=wrap;fillColor=#FFFFFF;fontColor=#7D868C;align=left;spacingLeft=80;spacing=15;fontSize=14;" vertex="1" parent="8qRsYu6iVw872slsagQy-191">
          <mxGeometry x="18" y="200" width="380" height="40" as="geometry" />
        </mxCell>
        <mxCell id="8qRsYu6iVw872slsagQy-242" value="" style="shape=triangle;direction=south;fillColor=#343A40;strokeColor=none;perimeter=none;" vertex="1" parent="8qRsYu6iVw872slsagQy-241">
          <mxGeometry x="1" y="0.5" width="7" height="3" relative="1" as="geometry">
            <mxPoint x="-17" y="1" as="offset" />
          </mxGeometry>
        </mxCell>
        <mxCell id="8qRsYu6iVw872slsagQy-243" value="" style="shape=triangle;direction=north;fillColor=#343A40;strokeColor=none;perimeter=none;" vertex="1" parent="8qRsYu6iVw872slsagQy-241">
          <mxGeometry x="1" y="0.5" width="7" height="3" relative="1" as="geometry">
            <mxPoint x="-17" y="-4" as="offset" />
          </mxGeometry>
        </mxCell>
        <mxCell id="8qRsYu6iVw872slsagQy-244" value="Локация" style="html=1;shadow=0;dashed=0;shape=mxgraph.bootstrap.leftButton;strokeColor=#CED4DA;gradientColor=inherit;fontColor=inherit;fillColor=#E9ECEF;rSize=5;perimeter=none;whiteSpace=wrap;resizeHeight=1;fontSize=14;align=left;spacing=15;" vertex="1" parent="8qRsYu6iVw872slsagQy-241">
          <mxGeometry width="80" height="40" relative="1" as="geometry" />
        </mxCell>
        <mxCell id="8qRsYu6iVw872slsagQy-245" value="&lt;font style=&quot;font-size: 14px;&quot; face=&quot;Helvetica&quot;&gt;Дата уборки&lt;/font&gt;" style="fillColor=none;strokeColor=none;html=1;fontSize=11;fontStyle=0;align=left;fontColor=#596780;fontStyle=1;fontSize=11;sketch=1;hachureGap=4;pointerEvents=0;fontFamily=Architects Daughter;fontSource=https%3A%2F%2Ffonts.googleapis.com%2Fcss%3Ffamily%3DArchitects%2BDaughter;" vertex="1" parent="8qRsYu6iVw872slsagQy-191">
          <mxGeometry x="18" y="265" width="372" height="20" as="geometry" />
        </mxCell>
        <mxCell id="8qRsYu6iVw872slsagQy-246" value="&lt;font style=&quot;font-size: 14px;&quot; face=&quot;Helvetica&quot;&gt;16.11.2023&lt;/font&gt;" style="rounded=1;arcSize=9;fillColor=#F7F8F9;align=left;spacingLeft=5;strokeColor=#DEE1E6;html=1;strokeWidth=2;fontColor=#596780;fontSize=12;sketch=1;hachureGap=4;pointerEvents=0;fontFamily=Architects Daughter;fontSource=https%3A%2F%2Ffonts.googleapis.com%2Fcss%3Ffamily%3DArchitects%2BDaughter;" vertex="1" parent="8qRsYu6iVw872slsagQy-191">
          <mxGeometry x="18" y="290" width="150" height="33" as="geometry" />
        </mxCell>
        <mxCell id="8qRsYu6iVw872slsagQy-247" value="" style="shape=mxgraph.gmdl.calendar;fillColor=#5A6881;strokeColor=none;sketch=0;hachureGap=4;pointerEvents=0;fontFamily=Architects Daughter;fontSource=https%3A%2F%2Ffonts.googleapis.com%2Fcss%3Ffamily%3DArchitects%2BDaughter;fontSize=20;" vertex="1" parent="8qRsYu6iVw872slsagQy-246">
          <mxGeometry x="1" y="0.5" width="18" height="18" relative="1" as="geometry">
            <mxPoint x="-29" y="-9" as="offset" />
          </mxGeometry>
        </mxCell>
        <mxCell id="8qRsYu6iVw872slsagQy-251" value="&lt;font face=&quot;Helvetica&quot;&gt;&lt;span style=&quot;font-size: 14px;&quot;&gt;Время начала уборки&lt;/span&gt;&lt;/font&gt;" style="fillColor=none;strokeColor=none;html=1;fontSize=11;fontStyle=0;align=left;fontColor=#596780;fontStyle=1;fontSize=11;sketch=1;hachureGap=4;pointerEvents=0;fontFamily=Architects Daughter;fontSource=https%3A%2F%2Ffonts.googleapis.com%2Fcss%3Ffamily%3DArchitects%2BDaughter;" vertex="1" parent="8qRsYu6iVw872slsagQy-191">
          <mxGeometry x="18" y="340" width="372" height="20" as="geometry" />
        </mxCell>
        <mxCell id="8qRsYu6iVw872slsagQy-252" value="&lt;font style=&quot;font-size: 14px;&quot; face=&quot;Helvetica&quot;&gt;18:00&lt;/font&gt;" style="rounded=1;arcSize=9;fillColor=#F7F8F9;align=left;spacingLeft=5;strokeColor=#DEE1E6;html=1;strokeWidth=2;fontColor=#596780;fontSize=12;sketch=1;hachureGap=4;pointerEvents=0;fontFamily=Architects Daughter;fontSource=https%3A%2F%2Ffonts.googleapis.com%2Fcss%3Ffamily%3DArchitects%2BDaughter;" vertex="1" parent="8qRsYu6iVw872slsagQy-191">
          <mxGeometry x="18" y="365" width="150" height="33" as="geometry" />
        </mxCell>
        <mxCell id="8qRsYu6iVw872slsagQy-254" value="" style="html=1;verticalLabelPosition=bottom;align=center;labelBackgroundColor=#ffffff;verticalAlign=top;strokeWidth=2;strokeColor=#0080F0;shadow=0;dashed=0;shape=mxgraph.ios7.icons.clock;" vertex="1" parent="8qRsYu6iVw872slsagQy-191">
          <mxGeometry x="138" y="373.25" width="22" height="16.5" as="geometry" />
        </mxCell>
        <mxCell id="8qRsYu6iVw872slsagQy-255" value="Запланировать" style="html=1;shadow=0;dashed=0;shape=mxgraph.bootstrap.rrect;rSize=5;fillColor=#0085FC;strokeColor=none;align=center;fontSize=14;fontColor=#FFFFFF;" vertex="1" parent="8qRsYu6iVw872slsagQy-191">
          <mxGeometry x="18" y="430" width="132" height="40" as="geometry" />
        </mxCell>
        <mxCell id="8qRsYu6iVw872slsagQy-219" value="" style="group" vertex="1" connectable="0" parent="1">
          <mxGeometry x="-330" y="1840" width="410" height="550.59" as="geometry" />
        </mxCell>
        <mxCell id="8qRsYu6iVw872slsagQy-220" value="Информация о роботе" style="strokeWidth=1;shadow=0;dashed=0;align=center;html=1;shape=mxgraph.mockup.containers.window;align=left;verticalAlign=top;spacingLeft=8;strokeColor2=#008cff;strokeColor3=#c4c4c4;fontColor=#666666;mainText=;fontSize=17;labelBackgroundColor=none;whiteSpace=wrap;" vertex="1" parent="8qRsYu6iVw872slsagQy-219">
          <mxGeometry width="410" height="550" as="geometry" />
        </mxCell>
        <mxCell id="8qRsYu6iVw872slsagQy-221" value="&lt;span style=&quot;white-space: pre;&quot;&gt;&#x9;&lt;/span&gt;Робот 1" style="html=1;shadow=0;dashed=0;shape=mxgraph.bootstrap.rrect;rSize=5;strokeColor=#CED4DA;html=1;whiteSpace=wrap;fillColor=#FFFFFF;fontColor=#7D868C;align=left;spacingLeft=80;spacing=15;fontSize=14;" vertex="1" parent="8qRsYu6iVw872slsagQy-219">
          <mxGeometry x="18" y="60" width="380" height="40" as="geometry" />
        </mxCell>
        <mxCell id="8qRsYu6iVw872slsagQy-222" value="" style="shape=triangle;direction=south;fillColor=#343A40;strokeColor=none;perimeter=none;" vertex="1" parent="8qRsYu6iVw872slsagQy-221">
          <mxGeometry x="1" y="0.5" width="7" height="3" relative="1" as="geometry">
            <mxPoint x="-17" y="1" as="offset" />
          </mxGeometry>
        </mxCell>
        <mxCell id="8qRsYu6iVw872slsagQy-223" value="" style="shape=triangle;direction=north;fillColor=#343A40;strokeColor=none;perimeter=none;" vertex="1" parent="8qRsYu6iVw872slsagQy-221">
          <mxGeometry x="1" y="0.5" width="7" height="3" relative="1" as="geometry">
            <mxPoint x="-17" y="-4" as="offset" />
          </mxGeometry>
        </mxCell>
        <mxCell id="8qRsYu6iVw872slsagQy-224" value="Подключённые роботы" style="html=1;shadow=0;dashed=0;shape=mxgraph.bootstrap.leftButton;strokeColor=#CED4DA;gradientColor=inherit;fontColor=inherit;fillColor=#E9ECEF;rSize=5;perimeter=none;whiteSpace=wrap;resizeHeight=1;fontSize=14;align=left;spacing=15;" vertex="1" parent="8qRsYu6iVw872slsagQy-221">
          <mxGeometry width="120" height="40" relative="1" as="geometry" />
        </mxCell>
        <mxCell id="8qRsYu6iVw872slsagQy-225" value="&lt;font style=&quot;font-size: 14px;&quot;&gt;Модель: Robot&lt;/font&gt;" style="text;html=1;strokeColor=none;fillColor=none;align=left;verticalAlign=middle;whiteSpace=wrap;rounded=0;" vertex="1" parent="8qRsYu6iVw872slsagQy-219">
          <mxGeometry x="18" y="160" width="372" height="30" as="geometry" />
        </mxCell>
        <mxCell id="8qRsYu6iVw872slsagQy-226" value="&lt;span style=&quot;font-size: 14px;&quot;&gt;Серийный_номер: 134234&lt;/span&gt;" style="text;html=1;strokeColor=none;fillColor=none;align=left;verticalAlign=middle;whiteSpace=wrap;rounded=0;" vertex="1" parent="8qRsYu6iVw872slsagQy-219">
          <mxGeometry x="18" y="200" width="372" height="30" as="geometry" />
        </mxCell>
        <mxCell id="8qRsYu6iVw872slsagQy-227" value="&lt;span style=&quot;font-size: 14px;&quot;&gt;Прошивка: Robot 1.0&lt;/span&gt;" style="text;html=1;strokeColor=none;fillColor=none;align=left;verticalAlign=middle;whiteSpace=wrap;rounded=0;" vertex="1" parent="8qRsYu6iVw872slsagQy-219">
          <mxGeometry x="18" y="240" width="372" height="30" as="geometry" />
        </mxCell>
        <mxCell id="8qRsYu6iVw872slsagQy-228" value="&lt;span style=&quot;font-size: 14px;&quot;&gt;Mac-address:&amp;nbsp;&lt;/span&gt;cc:dd:ee:ff:00:11" style="text;html=1;strokeColor=none;fillColor=none;align=left;verticalAlign=middle;whiteSpace=wrap;rounded=0;" vertex="1" parent="8qRsYu6iVw872slsagQy-219">
          <mxGeometry x="18" y="280" width="372" height="30" as="geometry" />
        </mxCell>
        <mxCell id="8qRsYu6iVw872slsagQy-230" value="&lt;font style=&quot;font-size: 14px;&quot;&gt;Имя: Rotty&lt;/font&gt;" style="text;html=1;strokeColor=none;fillColor=none;align=left;verticalAlign=middle;whiteSpace=wrap;rounded=0;" vertex="1" parent="8qRsYu6iVw872slsagQy-219">
          <mxGeometry x="18" y="120" width="372" height="30" as="geometry" />
        </mxCell>
        <mxCell id="8qRsYu6iVw872slsagQy-232" value="&lt;span style=&quot;font-size: 14px;&quot;&gt;Уровень зарядки: 60%&lt;/span&gt;" style="text;html=1;strokeColor=none;fillColor=none;align=left;verticalAlign=middle;whiteSpace=wrap;rounded=0;" vertex="1" parent="8qRsYu6iVw872slsagQy-219">
          <mxGeometry x="18" y="320" width="372" height="30" as="geometry" />
        </mxCell>
        <mxCell id="8qRsYu6iVw872slsagQy-233" value="&lt;span style=&quot;font-size: 14px;&quot;&gt;Пробег: 2 км&lt;/span&gt;" style="text;html=1;strokeColor=none;fillColor=none;align=left;verticalAlign=middle;whiteSpace=wrap;rounded=0;" vertex="1" parent="8qRsYu6iVw872slsagQy-219">
          <mxGeometry x="18" y="360" width="372" height="30" as="geometry" />
        </mxCell>
        <mxCell id="8qRsYu6iVw872slsagQy-235" value="Подробное состояние робота" style="html=1;shadow=0;dashed=0;shape=mxgraph.bootstrap.leftButton;strokeColor=#CED4DA;gradientColor=inherit;fontColor=inherit;fillColor=#E9ECEF;rSize=5;perimeter=none;whiteSpace=wrap;resizeHeight=1;fontSize=14;align=left;spacing=15;" vertex="1" parent="8qRsYu6iVw872slsagQy-219">
          <mxGeometry x="18" y="440" width="222" height="40" as="geometry" />
        </mxCell>
        <mxCell id="8qRsYu6iVw872slsagQy-236" value="&lt;span style=&quot;font-size: 14px;&quot;&gt;Комментарий: для уборки кухни&lt;/span&gt;" style="text;html=1;strokeColor=none;fillColor=none;align=left;verticalAlign=middle;whiteSpace=wrap;rounded=0;" vertex="1" parent="8qRsYu6iVw872slsagQy-219">
          <mxGeometry x="19" y="400" width="372" height="30" as="geometry" />
        </mxCell>
        <mxCell id="8qRsYu6iVw872slsagQy-256" value="" style="group" vertex="1" connectable="0" parent="1">
          <mxGeometry x="-790" y="1240" width="410" height="550.59" as="geometry" />
        </mxCell>
        <mxCell id="8qRsYu6iVw872slsagQy-257" value="Добавление локации" style="strokeWidth=1;shadow=0;dashed=0;align=center;html=1;shape=mxgraph.mockup.containers.window;align=left;verticalAlign=top;spacingLeft=8;strokeColor2=#008cff;strokeColor3=#c4c4c4;fontColor=#666666;mainText=;fontSize=17;labelBackgroundColor=none;whiteSpace=wrap;" vertex="1" parent="8qRsYu6iVw872slsagQy-256">
          <mxGeometry width="410" height="550" as="geometry" />
        </mxCell>
        <mxCell id="8qRsYu6iVw872slsagQy-264" value="Добавить" style="html=1;shadow=0;dashed=0;shape=mxgraph.bootstrap.rrect;rSize=5;fillColor=#0085FC;strokeColor=none;align=center;fontSize=14;fontColor=#FFFFFF;" vertex="1" parent="8qRsYu6iVw872slsagQy-256">
          <mxGeometry x="10" y="220" width="132" height="40" as="geometry" />
        </mxCell>
        <mxCell id="8qRsYu6iVw872slsagQy-265" value="Название локации" style="fillColor=none;strokeColor=none;align=left;fontSize=14;" vertex="1" parent="8qRsYu6iVw872slsagQy-256">
          <mxGeometry x="10" y="50" width="390" height="40" as="geometry" />
        </mxCell>
        <mxCell id="8qRsYu6iVw872slsagQy-266" value="" style="html=1;shadow=0;dashed=0;shape=mxgraph.bootstrap.rrect;rSize=5;fillColor=none;strokeColor=#999999;align=left;spacing=15;fontSize=14;fontColor=#6C767D;" vertex="1" parent="8qRsYu6iVw872slsagQy-256">
          <mxGeometry x="10" y="90" width="390" height="30" as="geometry" />
        </mxCell>
        <mxCell id="8qRsYu6iVw872slsagQy-267" value="Карта локации" style="html=1;shadow=0;dashed=0;shape=mxgraph.bootstrap.leftButton;strokeColor=#CED4DA;gradientColor=inherit;fontColor=inherit;fillColor=#E9ECEF;rSize=5;perimeter=none;whiteSpace=wrap;resizeHeight=1;fontSize=14;align=left;spacing=15;" vertex="1" parent="8qRsYu6iVw872slsagQy-256">
          <mxGeometry x="10" y="150" width="222" height="40" as="geometry" />
        </mxCell>
        <mxCell id="8qRsYu6iVw872slsagQy-268" value="" style="group" vertex="1" connectable="0" parent="1">
          <mxGeometry x="-330" y="1240" width="410" height="550.59" as="geometry" />
        </mxCell>
        <mxCell id="8qRsYu6iVw872slsagQy-269" value="Настройка карты локации" style="strokeWidth=1;shadow=0;dashed=0;align=center;html=1;shape=mxgraph.mockup.containers.window;align=left;verticalAlign=top;spacingLeft=8;strokeColor2=#008cff;strokeColor3=#c4c4c4;fontColor=#666666;mainText=;fontSize=17;labelBackgroundColor=none;whiteSpace=wrap;" vertex="1" parent="8qRsYu6iVw872slsagQy-268">
          <mxGeometry width="410" height="550" as="geometry" />
        </mxCell>
        <mxCell id="8qRsYu6iVw872slsagQy-270" value="Просканировать" style="html=1;shadow=0;dashed=0;shape=mxgraph.bootstrap.rrect;rSize=5;fillColor=#0085FC;strokeColor=none;align=center;fontSize=14;fontColor=#FFFFFF;" vertex="1" parent="8qRsYu6iVw872slsagQy-268">
          <mxGeometry x="20" y="400" width="132" height="40" as="geometry" />
        </mxCell>
        <mxCell id="8qRsYu6iVw872slsagQy-275" value="ОК" style="html=1;shadow=0;dashed=0;shape=mxgraph.bootstrap.rrect;rSize=5;fillColor=#0085FC;strokeColor=none;align=center;fontSize=14;fontColor=#FFFFFF;" vertex="1" parent="8qRsYu6iVw872slsagQy-268">
          <mxGeometry x="258" y="400" width="132" height="40" as="geometry" />
        </mxCell>
        <mxCell id="8qRsYu6iVw872slsagQy-278" value="Карта помещения" style="shape=ext;double=1;rounded=0;whiteSpace=wrap;html=1;" vertex="1" parent="8qRsYu6iVw872slsagQy-268">
          <mxGeometry x="15" y="50" width="380" height="280" as="geometry" />
        </mxCell>
        <mxCell id="8qRsYu6iVw872slsagQy-279" value="" style="group" vertex="1" connectable="0" parent="1">
          <mxGeometry x="-790" y="640" width="410" height="550.59" as="geometry" />
        </mxCell>
        <mxCell id="8qRsYu6iVw872slsagQy-280" value="Управление роботами" style="strokeWidth=1;shadow=0;dashed=0;align=center;html=1;shape=mxgraph.mockup.containers.window;align=left;verticalAlign=top;spacingLeft=8;strokeColor2=#008cff;strokeColor3=#c4c4c4;fontColor=#666666;mainText=;fontSize=17;labelBackgroundColor=none;whiteSpace=wrap;" vertex="1" parent="8qRsYu6iVw872slsagQy-279">
          <mxGeometry width="410" height="550" as="geometry" />
        </mxCell>
        <mxCell id="8qRsYu6iVw872slsagQy-281" value="&lt;span style=&quot;white-space: pre;&quot;&gt;&#x9;&lt;/span&gt;Робот 1" style="html=1;shadow=0;dashed=0;shape=mxgraph.bootstrap.rrect;rSize=5;strokeColor=#CED4DA;html=1;whiteSpace=wrap;fillColor=#FFFFFF;fontColor=#7D868C;align=left;spacingLeft=80;spacing=15;fontSize=14;" vertex="1" parent="8qRsYu6iVw872slsagQy-279">
          <mxGeometry x="18" y="60" width="380" height="50.00176470588235" as="geometry" />
        </mxCell>
        <mxCell id="8qRsYu6iVw872slsagQy-282" value="" style="shape=triangle;direction=south;fillColor=#343A40;strokeColor=none;perimeter=none;" vertex="1" parent="8qRsYu6iVw872slsagQy-281">
          <mxGeometry x="1" y="0.5" width="7" height="3" relative="1" as="geometry">
            <mxPoint x="-17" y="1" as="offset" />
          </mxGeometry>
        </mxCell>
        <mxCell id="8qRsYu6iVw872slsagQy-283" value="" style="shape=triangle;direction=north;fillColor=#343A40;strokeColor=none;perimeter=none;" vertex="1" parent="8qRsYu6iVw872slsagQy-281">
          <mxGeometry x="1" y="0.5" width="7" height="3" relative="1" as="geometry">
            <mxPoint x="-17" y="-4" as="offset" />
          </mxGeometry>
        </mxCell>
        <mxCell id="8qRsYu6iVw872slsagQy-284" value="Подключённые роботы" style="html=1;shadow=0;dashed=0;shape=mxgraph.bootstrap.leftButton;strokeColor=#CED4DA;gradientColor=inherit;fontColor=inherit;fillColor=#E9ECEF;rSize=5;perimeter=none;whiteSpace=wrap;resizeHeight=1;fontSize=14;align=left;spacing=15;" vertex="1" parent="8qRsYu6iVw872slsagQy-281">
          <mxGeometry width="120" height="40" relative="1" as="geometry" />
        </mxCell>
        <mxCell id="8qRsYu6iVw872slsagQy-287" value="Добавить робота" style="html=1;shadow=0;dashed=0;shape=mxgraph.bootstrap.rrect;rSize=5;fillColor=#0085FC;strokeColor=none;align=center;fontSize=14;fontColor=#FFFFFF;" vertex="1" parent="8qRsYu6iVw872slsagQy-279">
          <mxGeometry x="18" y="130" width="182" height="40" as="geometry" />
        </mxCell>
        <mxCell id="8qRsYu6iVw872slsagQy-293" value="Удалить робота" style="html=1;shadow=0;dashed=0;shape=mxgraph.bootstrap.rrect;rSize=5;fillColor=#0085FC;strokeColor=none;align=center;fontSize=14;fontColor=#FFFFFF;" vertex="1" parent="8qRsYu6iVw872slsagQy-279">
          <mxGeometry x="220" y="130" width="178" height="40" as="geometry" />
        </mxCell>
        <mxCell id="8qRsYu6iVw872slsagQy-310" value="Имя" style="fillColor=none;strokeColor=none;align=left;fontSize=14;" vertex="1" parent="8qRsYu6iVw872slsagQy-279">
          <mxGeometry x="18.000000000000227" y="180.00176470588235" width="260" height="40" as="geometry" />
        </mxCell>
        <mxCell id="8qRsYu6iVw872slsagQy-311" value="Робот 1" style="html=1;shadow=0;dashed=0;shape=mxgraph.bootstrap.rrect;rSize=5;fillColor=none;strokeColor=#999999;align=left;spacing=15;fontSize=14;fontColor=#6C767D;" vertex="1" parent="8qRsYu6iVw872slsagQy-279">
          <mxGeometry x="18.000000000000227" y="220.00176470588235" width="320" height="30" as="geometry" />
        </mxCell>
        <mxCell id="8qRsYu6iVw872slsagQy-312" value="Комментарий" style="fillColor=none;strokeColor=none;align=left;fontSize=14;" vertex="1" parent="8qRsYu6iVw872slsagQy-279">
          <mxGeometry x="18.000000000000227" y="280.00176470588235" width="260" height="40" as="geometry" />
        </mxCell>
        <mxCell id="8qRsYu6iVw872slsagQy-313" value="здесь пока ничего нет" style="html=1;shadow=0;dashed=0;shape=mxgraph.bootstrap.rrect;rSize=5;fillColor=none;strokeColor=#999999;align=left;spacing=15;fontSize=14;fontColor=#6C767D;" vertex="1" parent="8qRsYu6iVw872slsagQy-279">
          <mxGeometry x="18.000000000000227" y="320.00176470588235" width="320" height="30" as="geometry" />
        </mxCell>
      </root>
    </mxGraphModel>
  </diagram>
</mxfile>
